<?xml version="1.0" standalone="no"?>
<!DOCTYPE svg PUBLIC "-//W3C//DTD SVG 20010904//EN"
 "http://www.w3.org/TR/2001/REC-SVG-20010904/DTD/svg10.dtd">
<svg version="1.0" xmlns="http://www.w3.org/2000/svg"
 width="650.000000pt" height="650.000000pt" viewBox="0 0 650.000000 650.000000"
 preserveAspectRatio="xMidYMid meet">
<metadata>
Created by potrace 1.14, written by Peter Selinger 2001-2017
</metadata>
<g transform="translate(0.000000,650.000000) scale(0.100000,-0.100000)"
fill="#000000" stroke="none">
<path d="M3038 6496 c-1 -2 -37 -6 -78 -9 -69 -6 -153 -16 -254 -32 -55 -9
-67 -12 -153 -30 -182 -39 -391 -107 -598 -193 -190 -79 -471 -244 -660 -387
-151 -115 -181 -141 -330 -290 -134 -134 -171 -173 -240 -260 -22 -27 -42 -52
-45 -55 -29 -28 -196 -276 -250 -371 -52 -92 -166 -329 -203 -424 -90 -232
-167 -518 -192 -721 -4 -27 -8 -60 -11 -74 -19 -115 -26 -527 -11 -685 9 -105
25 -227 31 -245 3 -8 7 -33 10 -55 3 -22 10 -62 16 -90 7 -27 13 -57 15 -65 1
-8 8 -35 15 -60 7 -25 13 -52 15 -60 11 -58 108 -328 157 -440 110 -250 280
-536 419 -705 241 -293 470 -505 751 -695 65 -44 120 -80 123 -80 3 0 34 -18
70 -40 36 -22 125 -69 198 -103 133 -64 178 -83 307 -132 103 -39 366 -114
455 -129 17 -3 53 -10 82 -15 29 -6 74 -13 100 -16 26 -4 59 -8 73 -11 141
-25 645 -25 800 1 14 2 47 6 74 10 348 44 797 198 1121 383 126 72 360 228
401 267 6 5 52 43 101 84 83 68 283 264 361 353 18 21 66 82 108 135 41 54 82
106 90 116 8 9 14 19 14 21 0 2 26 44 59 92 238 360 413 819 481 1259 6 39 13
81 15 95 11 64 20 232 20 405 0 313 -17 467 -90 785 -43 192 -128 423 -235
645 -379 780 -1065 1382 -1894 1659 -180 61 -460 123 -631 142 -33 3 -73 8
-90 11 -33 5 -511 13 -517 9z"/>
</g>
</svg>
